{"accessors":[{"bufferView":0,"byteOffset":0,"componentType":5126,"count":8,"max":[20.0,20.0,20.0],"min":[-20.0,-20.0,-20.0],"type":"VEC3"},{"bufferView":1,"byteOffset":0,"componentType":5125,"count":24,"type":"SCALAR"},{"bufferView":2,"byteOffset":0,"componentType":5126,"count":34648,"max":[20.0,20.0,20.0],"min":[-20.0,-20.0,-20.0],"type":"VEC3"},{"bufferView":3,"byteOffset":0,"componentType":5126,"count":34648,"normalized":false,"type":"VEC2"},{"bufferView":4,"byteOffset":0,"componentType":5125,"count":201324,"type":"SCALAR"}],"asset":{"generator":"VTK","version":"2.0"},"bufferViews":[{"buffer":0,"byteLength":96,"byteOffset":0},{"buffer":1,"byteLength":96,"byteOffset":0},{"buffer":2,"byteLength":415776,"byteOffset":0},{"buffer":3,"byteLength":277184,"byteOffset":0},{"buffer":4,"byteLength":805296,"byteOffset":0},{"buffer":5,"byteLength":336,"byteOffset":0}],"buffers":[{"byteLength":96,"uri":"buffer890588.bin"},{"byteLength":96,"uri":"buffer1531177.bin"},{"byteLength":415776,"uri":"buffer892173.bin"},{"byteLength":277184,"uri":"buffer1531667.bin"},{"byteLength":805296,"uri":"buffer1531668.bin"},{"byteLength":336,"uri":"buffer1532162.bin"}],"cameras":[{"perspective":{"aspectRatio":1.498134328358209,"yfov":0.5235987755982988,"zfar":230.63037895542448,"znear":74.89029540831919},"type":"perspective"}],"images":[{"bufferView":5,"mimeType":"image/png"}],"materials":[{"pbrMetallicRoughness":{"baseColorFactor":[1.0,1.0,1.0,1.0],"metallicFactor":0.0,"roughnessFactor":1.0}},{"pbrMetallicRoughness":{"baseColorFactor":[1.0,1.0,1.0,1.0],"baseColorTexture":{"index":0,"texCoord":0},"metallicFactor":0.0,"roughnessFactor":1.0}}],"meshes":[{"name":"mesh0","primitives":[{"attributes":{"POSITION":0},"indices":1,"material":0,"mode":1}]},{"name":"mesh1","primitives":[{"attributes":{"POSITION":2,"TEXCOORD_0":3},"indices":4,"material":1,"mode":4}]}],"nodes":[{"mesh":0,"name":"mesh0"},{"mesh":1,"name":"mesh1"},{"camera":0,"matrix":[0.6597933583664972,-0.1462319751682359,-0.737081361651382,0.0,-0.22504562586874383,0.8974092280713224,-0.3794880019839607,0.0,0.716956895868088,0.4162605996378106,0.5591957820445054,-0.0,104.31548935427199,57.72697080835769,80.2331210842775,1.0],"name":"Camera Node"},{"children":[0,1,2],"name":"Renderer Node"}],"samplers":[{"magFilter":9728,"minFilter":9728,"wrapS":33071,"wrapT":33071}],"scene":0,"scenes":[{"name":"Layer 0","nodes":[3]}],"textures":[{"sampler":0,"source":0}]}